# xmcd CD database file
#
# Track frame offsets:
#	150
#	33062
#	60480
#	113577
#	146685
#
# Disc length: 2541 seconds
#
# Revision: 0
# Processed by: cddbd v1.5.1PL0 Copyright (c) Steve Scherf et al.
# Submitted via: CDex 1.51
#
DISCID=3709eb05
DTITLE=Opstad Jon - Still Picture
DYEAR=2004
DGENRE=Jazz
TTITLE0=Fjord song
TTITLE1=Three words
TTITLE2=Still picture
TTITLE3=Quiet place
TTITLE4=Athabasca
EXTD=YEAR: 2004
EXTT0=
EXTT1=
EXTT2=
EXTT3=
EXTT4=
PLAYORDER=
